<svg xmlns="http://www.w3.org/2000/svg" width="620" height="420" viewBox="0 0 620 420" fill="none">
  <defs>
    <linearGradient id="cloudBlue" x1="90" y1="330" x2="420" y2="110" gradientUnits="userSpaceOnUse">
      <stop stop-color="#4A8CFF"/>
      <stop offset="1" stop-color="#63CFFF"/>
    </linearGradient>
    <linearGradient id="cloudTeal" x1="250" y1="310" x2="500" y2="190" gradientUnits="userSpaceOnUse">
      <stop stop-color="#7BE7EE"/>
      <stop offset="1" stop-color="#A6EAF4"/>
    </linearGradient>
    <linearGradient id="heartPink" x1="235" y1="165" x2="355" y2="325" gradientUnits="userSpaceOnUse">
      <stop stop-color="#FF87C5"/>
      <stop offset="1" stop-color="#D94B95"/>
    </linearGradient>
    <linearGradient id="heartPinkInner" x1="260" y1="185" x2="338" y2="292" gradientUnits="userSpaceOnUse">
      <stop stop-color="#FF9DD0"/>
      <stop offset="1" stop-color="#E36AA7"/>
    </linearGradient>
    <linearGradient id="filePink" x1="340" y1="60" x2="500" y2="215" gradientUnits="userSpaceOnUse">
      <stop stop-color="#F57DBA"/>
      <stop offset="1" stop-color="#DE5C9E"/>
    </linearGradient>
  </defs>

  <path d="M78 150L89 124L100 150L126 161L100 172L89 198L78 172L52 161L78 150Z" fill="#E779B1"/>
  <path d="M136 92L146 70L156 92L178 102L156 112L146 134L136 112L114 102L136 92Z" fill="#8DD8FF"/>
  <path d="M474 90L484 68L494 90L516 100L494 110L484 132L474 110L452 100L474 90Z" fill="#8DD8FF"/>
  <path d="M540 142L550 120L560 142L582 152L560 162L550 184L540 162L518 152L540 142Z" fill="#E779B1"/>

  <path d="M447 364H123C70 364 28 322 28 270C28 228 55 192 96 180C106 119 161 72 228 72C285 72 333 105 357 156C370 151 384 148 400 148C449 148 489 188 489 237C489 286 449 326 400 326H447V364Z" fill="url(#cloudBlue)"/>
  <path d="M448 364H254C215 364 183 332 183 293C183 253 215 221 254 221C280 221 303 233 316 253C332 233 356 221 383 221C430 221 468 259 468 306C468 338 451 362 448 364Z" fill="url(#cloudTeal)"/>
  <path d="M84 257C93 217 129 187 173 187C205 187 233 202 249 226C229 214 205 207 180 207C143 207 110 224 84 257Z" fill="#DDF6FF"/>
  <ellipse cx="157" cy="300" rx="85" ry="49" fill="#76C9FF" opacity="0.28"/>
  <ellipse cx="376" cy="295" rx="103" ry="60" fill="#B4F0F6" opacity="0.28"/>

  <path d="M355 68H448L528 148V258C528 270 519 279 507 279H355C343 279 334 270 334 258V89C334 77 343 68 355 68Z" fill="url(#filePink)"/>
  <path d="M448 68V114C448 127 458 137 471 137H528" fill="#FFD1E6" opacity="0.78"/>
  <circle cx="440" cy="177" r="11" fill="#FFF4FA" opacity="0.95"/>

  <path d="M280 336L181 237C156 212 156 173 181 148C206 123 245 123 270 148L280 158L290 148C315 123 354 123 379 148C404 173 404 212 379 237L280 336Z" fill="white"/>
  <path d="M280 320L194 238C173 218 173 185 194 165C215 144 248 144 268 165L280 176L292 165C312 144 345 144 366 165C387 185 387 218 366 238L280 320Z" fill="url(#heartPink)"/>
  <path d="M280 289L220 231C205 216 205 192 220 178C235 164 258 164 273 178L280 185L287 178C302 164 325 164 340 178C355 192 355 216 340 231L280 289Z" fill="url(#heartPinkInner)" opacity="0.82"/>
</svg>