<svg xmlns="http://www.w3.org/2000/svg" width="1600" height="520" viewBox="0 0 1600 520" fill="none">
  <g fill="#FFFFFF">
    <path d="M88 150L99 124L110 150L136 161L110 172L99 198L88 172L62 161L88 150Z"/>
    <path d="M145 92L155 70L165 92L187 102L165 112L155 134L145 112L123 102L145 92Z"/>
    <path d="M490 92L500 70L510 92L532 102L510 112L500 134L490 112L468 102L490 92Z"/>
    <path d="M560 142L570 120L580 142L602 152L580 162L570 184L560 162L538 152L560 142Z"/>

    <path d="M483 411H151C84 411 30 357 30 291C30 238 65 192 117 176C130 99 198 41 281 41C352 41 412 84 441 147C457 141 475 138 494 138C555 138 605 188 605 249C605 311 555 361 494 361H483V411Z"/>
    <path d="M468 392H260C218 392 184 358 184 316C184 273 218 239 260 239C287 239 311 253 325 274C342 252 367 239 395 239C446 239 487 280 487 330C487 364 468 390 464 392Z"/>

    <path d="M374 70H476L565 160V280C565 293 554 304 541 304H374C361 304 350 293 350 280V94C350 81 361 70 374 70Z"/>
    <path d="M476 70V120C476 134 487 145 501 145H565" opacity="0.95"/>
    <circle cx="468" cy="190" r="12"/>

    <path d="M294 364L187 258C161 232 161 191 187 165C214 138 257 138 283 165L294 176L305 165C331 138 374 138 401 165C427 191 427 232 401 258L294 364Z"/>
    <path d="M294 332L204 243C182 222 182 188 204 167C225 145 259 145 280 167L294 181L308 167C329 145 363 145 384 167C406 188 406 222 384 243L294 332Z" opacity="0.9"/>
  </g>

  <text x="660" y="315" font-family="Poppins, Inter, Arial, sans-serif" font-size="170" font-weight="800" fill="#FFFFFF">CoreDrive</text>
</svg>



