<svg xmlns="http://www.w3.org/2000/svg" width="1600" height="520" viewBox="0 0 1600 520" fill="none">
  <defs>
    <linearGradient id="cloudBlue" x1="120" y1="360" x2="470" y2="120" gradientUnits="userSpaceOnUse">
      <stop stop-color="#4A8CFF"/>
      <stop offset="1" stop-color="#63CFFF"/>
    </linearGradient>
    <linearGradient id="cloudTeal" x1="265" y1="335" x2="545" y2="205" gradientUnits="userSpaceOnUse">
      <stop stop-color="#7BE7EE"/>
      <stop offset="1" stop-color="#A6EAF4"/>
    </linearGradient>
    <linearGradient id="heartPink" x1="245" y1="180" x2="370" y2="355" gradientUnits="userSpaceOnUse">
      <stop stop-color="#FF87C5"/>
      <stop offset="1" stop-color="#D94B95"/>
    </linearGradient>
    <linearGradient id="heartPinkInner" x1="270" y1="200" x2="350" y2="315" gradientUnits="userSpaceOnUse">
      <stop stop-color="#FF9DD0"/>
      <stop offset="1" stop-color="#E36AA7"/>
    </linearGradient>
    <linearGradient id="filePink" x1="360" y1="72" x2="540" y2="250" gradientUnits="userSpaceOnUse">
      <stop stop-color="#F57DBA"/>
      <stop offset="1" stop-color="#DE5C9E"/>
    </linearGradient>
    <filter id="softShadow" x="0" y="0" width="1600" height="520" filterUnits="userSpaceOnUse" color-interpolation-filters="sRGB">
      <feDropShadow dx="0" dy="8" stdDeviation="12" flood-color="#5670b61c"/>
    </filter>
  </defs>

  <g transform="translate(20 20)" filter="url(#softShadow)">
    <!-- sparkles -->
    <path d="M88 150L99 124L110 150L136 161L110 172L99 198L88 172L62 161L88 150Z" fill="#E779B1"/>
    <path d="M145 92L155 70L165 92L187 102L165 112L155 134L145 112L123 102L145 92Z" fill="#8DD8FF"/>
    <path d="M490 92L500 70L510 92L532 102L510 112L500 134L490 112L468 102L490 92Z" fill="#8DD8FF"/>
    <path d="M560 142L570 120L580 142L602 152L580 162L570 184L560 162L538 152L560 142Z" fill="#E779B1"/>

    <!-- cloud -->
    <path d="M463 391H131C74 391 28 346 28 289C28 243 58 203 101 190C112 122 170 71 241 71C301 71 352 107 377 161C391 156 406 153 422 153C475 153 518 196 518 249C518 302 475 345 422 345H463V391Z" fill="url(#cloudBlue)"/>
    <path d="M464 392H260C218 392 184 358 184 316C184 273 218 239 260 239C287 239 311 253 325 274C342 252 367 239 395 239C446 239 487 280 487 330C487 364 468 390 464 392Z" fill="url(#cloudTeal)"/>
    <path d="M87 273C96 228 135 195 182 195C216 195 247 212 264 240C243 227 218 220 191 220C151 220 115 238 87 273Z" fill="#DDF6FF"/>
    <ellipse cx="164" cy="322" rx="92" ry="54" fill="#76C9FF" opacity="0.28"/>
    <ellipse cx="387" cy="317" rx="112" ry="66" fill="#B4F0F6" opacity="0.28"/>

    <!-- file tab -->
    <path d="M374 70H476L565 160V280C565 293 554 304 541 304H374C361 304 350 293 350 280V94C350 81 361 70 374 70Z" fill="url(#filePink)"/>
    <path d="M476 70V120C476 134 487 145 501 145H565" fill="#FFD1E6" opacity="0.75"/>
    <circle cx="468" cy="190" r="12" fill="#FFF4FA" opacity="0.95"/>

    <!-- outer heart -->
    <path d="M294 364L187 258C161 232 161 191 187 165C214 138 257 138 283 165L294 176L305 165C331 138 374 138 401 165C427 191 427 232 401 258L294 364Z" fill="white"/>
    <!-- heart -->
    <path d="M294 347L202 255C180 233 180 198 202 176C225 154 260 154 282 176L294 188L306 176C328 154 363 154 386 176C408 198 408 233 386 255L294 347Z" fill="url(#heartPink)"/>
    <path d="M294 313L230 248C214 232 214 207 230 191C245 175 270 175 285 191L294 199L303 191C318 175 343 175 358 191C374 207 374 232 358 248L294 313Z" fill="url(#heartPinkInner)" opacity="0.82"/>
  </g>

  <text x="660" y="315" font-family="Poppins, Inter, Arial, sans-serif" font-size="170" font-weight="800" fill="#DE5C9E">CoreDrive</text>
</svg>
